<svg xmlns="http://www.w3.org/2000/svg" width="27.832" height="35.575" viewBox="0 0 27.832 35.575">
  <path id="Icon_awesome-pinterest-p" data-name="Icon awesome-pinterest-p" d="M13.723.457C6.821.457,0,5.058,0,12.505c0,4.736,2.664,7.427,4.278,7.427.666,0,1.049-1.857,1.049-2.381,0-.626-1.594-1.958-1.594-4.561a9.091,9.091,0,0,1,9.445-9.243c4.581,0,7.972,2.6,7.972,7.386,0,3.572-1.433,10.272-6.075,10.272a2.987,2.987,0,0,1-3.108-2.947c0-2.543,1.776-5.005,1.776-7.629,0-4.453-6.317-3.646-6.317,1.736a7.9,7.9,0,0,0,.646,3.411c-.928,4-2.825,9.95-2.825,14.067,0,1.271.182,2.523.3,3.794.229.256.114.229.464.1,3.391-4.642,3.269-5.55,4.8-11.625a5.456,5.456,0,0,0,4.662,2.422c7.144,0,10.353-6.963,10.353-13.239C25.832,4.816,20.06.457,13.723.457Z" transform="translate(1 0.543)" fill="none" stroke="#000" stroke-width="2"/>
</svg>
