<svg xmlns="http://www.w3.org/2000/svg" width="38.005" height="35.624" viewBox="0 0 38.005 35.624">
  <path id="Icon_simple-snapchat" data-name="Icon simple-snapchat" d="M18.309,1.189a9.585,9.585,0,0,1,8.9,5.732c.794,1.789.6,4.829.448,7.27l0,.09c-.018.27-.033.517-.045.765a1.165,1.165,0,0,0,.6.135,4.215,4.215,0,0,0,1.549-.451,1.494,1.494,0,0,1,.7-.156,2.052,2.052,0,0,1,.764.135,1.426,1.426,0,0,1,1.1,1.257q.034,1.01-1.819,1.752c-.133.044-.313.112-.516.178-.675.2-1.708.54-2,1.215a1.57,1.57,0,0,0,.18,1.3l.022.022c.09.2,2.289,5.212,7.186,6.021a.748.748,0,0,1,.63.764.909.909,0,0,1-.068.337c-.36.854-1.91,1.482-4.719,1.906a4.027,4.027,0,0,0-.246.855,6.036,6.036,0,0,1-.2.83.786.786,0,0,1-.833.608h-.045a4.786,4.786,0,0,1-.807-.111,9.05,9.05,0,0,0-1.91-.2,7.288,7.288,0,0,0-1.369.111,6.728,6.728,0,0,0-2.584,1.326,8.177,8.177,0,0,1-4.941,1.932c-.09,0-.178-.022-.27-.022h-.223a7.981,7.981,0,0,1-4.918-1.932A6.653,6.653,0,0,0,10.3,31.531a9.934,9.934,0,0,0-1.392-.111A9.419,9.419,0,0,0,7,31.644a4.318,4.318,0,0,1-.81.111.837.837,0,0,1-.874-.63c-.091-.288-.135-.583-.2-.851a3.98,3.98,0,0,0-.249-.855C1.99,29.086.442,28.456.084,27.58A.9.9,0,0,1,0,27.243a.744.744,0,0,1,.63-.764c4.9-.81,7.095-5.819,7.187-6.03l.024-.044a1.5,1.5,0,0,0,.178-1.3c-.293-.651-1.326-.987-2-1.214A3.35,3.35,0,0,1,5.5,17.71c-1.661-.653-1.885-1.4-1.8-1.91A1.773,1.773,0,0,1,5.46,14.611a1.519,1.519,0,0,1,.575.111,4.1,4.1,0,0,0,1.656.45,1.418,1.418,0,0,0,.7-.158l-.069-.854c-.147-2.439-.338-5.477.46-7.255a9.433,9.433,0,0,1,8.811-5.7l.628-.023h.09Z" transform="translate(1.003 -0.188)" fill="none" stroke="#000" stroke-linecap="round" stroke-linejoin="round" stroke-width="2"/>
</svg>
