<svg xmlns="http://www.w3.org/2000/svg" width="38" height="38" viewBox="0 0 38 38">
  <path id="Icon_simple-spotify" data-name="Icon simple-spotify" d="M18,0A18,18,0,1,0,36,18,18.053,18.053,0,0,0,18,0Zm8.281,26.01a1.072,1.072,0,0,1-1.531.36c-4.23-2.61-9.54-3.152-15.842-1.712A1.112,1.112,0,1,1,8.37,22.5a27.45,27.45,0,0,1,11.915-.264A17.867,17.867,0,0,1,25.83,24.48a1.081,1.081,0,0,1,.451,1.53Zm2.16-4.95a1.359,1.359,0,0,1-1.893.45A23.325,23.325,0,0,0,8.64,19.44a1.367,1.367,0,0,1-.81-2.611A26.342,26.342,0,0,1,28.08,19.26a1.271,1.271,0,0,1,.361,1.8Zm.18-5.04C22.86,12.6,13.23,12.24,7.74,13.951A1.652,1.652,0,0,1,6.75,10.8c6.39-1.89,16.92-1.53,23.581,2.431a1.741,1.741,0,0,1,.628,2.34,1.884,1.884,0,0,1-2.339.45Z" transform="translate(1 1)" fill="none" stroke="#000" stroke-width="2"/>
</svg>
