<svg xmlns="http://www.w3.org/2000/svg" width="31.563" height="36.031" viewBox="0 0 31.563 36.031">
  <path id="Icon_simple-tiktok" data-name="Icon simple-tiktok" d="M17.9.028C19.753,0,21.6.014,23.44,0a8.832,8.832,0,0,0,2.481,5.913,10,10,0,0,0,6.012,2.538v5.714a15.176,15.176,0,0,1-5.955-1.375,17.518,17.518,0,0,1-2.3-1.319c-.014,4.14.014,8.28-.028,12.406a10.83,10.83,0,0,1-1.914,5.586,10.564,10.564,0,0,1-8.38,4.551,10.339,10.339,0,0,1-5.785-1.46,10.692,10.692,0,0,1-5.175-8.1c-.028-.709-.043-1.418-.014-2.113a10.674,10.674,0,0,1,12.378-9.471c.028,2.1-.057,4.2-.057,6.3A4.865,4.865,0,0,0,8.5,22.176a5.625,5.625,0,0,0-.2,2.283,4.826,4.826,0,0,0,4.963,4.069,4.764,4.764,0,0,0,3.928-2.283,3.271,3.271,0,0,0,.581-1.5c.142-2.538.085-5.062.1-7.6.014-5.714-.014-11.414.028-17.114Z" transform="translate(-1.369 1)" fill="none" stroke="#000" stroke-linecap="round" stroke-linejoin="bevel" stroke-width="2"/>
</svg>
