<svg xmlns="http://www.w3.org/2000/svg" width="27.942" height="36.046" viewBox="0 0 27.942 36.046">
  <path id="Icon_simple-tinder" data-name="Icon simple-tinder" d="M13.439,13.391a.352.352,0,0,0,.3.17.344.344,0,0,0,.224-.081l.021-.017A15.983,15.983,0,0,0,15.5,12.022c4.547-4.935,1.892-10.993,1.87-11.05A.707.707,0,0,1,17.584.13a.7.7,0,0,1,.871.047c15.408,14.33,11.328,25.246,11.03,25.981-1.233,4.45-6.142,7.671-11.964,7.835-.2.011-.343.011-.514.011C10.133,34,4.288,29.77,4.288,24.36v-.085c0-7.505,6.794-14.908,7.1-15.223a.622.622,0,0,1,.744-.149.673.673,0,0,1,.412.639,6.676,6.676,0,0,0,.894,3.826v.021h0Z" transform="translate(-3.289 1.041)" fill="none" stroke="#000" stroke-linecap="round" stroke-width="2"/>
</svg>
