<svg xmlns="http://www.w3.org/2000/svg" width="33.443" height="33.5" viewBox="0 0 33.443 33.5">
  <g id="Icon_ionic-logo-xing" data-name="Icon ionic-logo-xing" transform="translate(-1.256 -1.25)">
    <path id="Pfad_229" data-name="Pfad 229" d="M22.064,21.368,32.977,2.25H25.664L14.723,21.361a.1.1,0,0,0,0,.12L21.677,33.7c.028.049.056.049.112.049h7.249L22.057,21.466A.122.122,0,0,1,22.064,21.368Z" fill="none" stroke="#000" stroke-linecap="round" stroke-linejoin="round" stroke-width="2"/>
    <path id="Pfad_230" data-name="Pfad 230" d="M15.6,15.2,11.461,7.945a.137.137,0,0,0-.141-.07H4.57l4.141,7.341a.079.079,0,0,1,.007.056l-5.7,9.478H9.83a.109.109,0,0,0,.113-.063l5.66-9.4A.171.171,0,0,0,15.6,15.2Z" fill="none" stroke="#000" stroke-linecap="round" stroke-linejoin="round" stroke-width="2"/>
  </g>
</svg>
