<svg xmlns="http://www.w3.org/2000/svg" width="40.173" height="28.824" viewBox="0 0 40.173 28.824">
  <g id="Icon_feather-youtube" data-name="Icon feather-youtube" transform="translate(-0.499 -5)">
    <path id="Pfad_227" data-name="Pfad 227" d="M38.873,10.2a4.823,4.823,0,0,0-3.366-3.47C32.523,6,20.586,6,20.586,6S8.648,6,5.664,6.8A4.823,4.823,0,0,0,2.3,10.268a50.316,50.316,0,0,0-.8,9.178,50.316,50.316,0,0,0,.8,9.248,4.823,4.823,0,0,0,3.366,3.331c2.984.8,14.921.8,14.921.8s11.937,0,14.921-.8a4.823,4.823,0,0,0,3.366-3.47,50.315,50.315,0,0,0,.8-9.109,50.315,50.315,0,0,0-.8-9.248Z" fill="none" stroke="#000" stroke-linecap="round" stroke-linejoin="round" stroke-width="2"/>
    <path id="Pfad_228" data-name="Pfad 228" d="M14.625,24.067,24.6,18.394,14.625,12.72Z" transform="translate(2.057 1.053)" fill="none" stroke="#000" stroke-linecap="round" stroke-linejoin="round" stroke-width="2"/>
  </g>
</svg>
