<svg xmlns="http://www.w3.org/2000/svg" xmlns:xlink="http://www.w3.org/1999/xlink" width="1920" height="1080" viewBox="0 0 1920 1080">
  <defs>
    <clipPath id="clip-Web_1920_1">
      <rect width="1920" height="1080"/>
    </clipPath>
  </defs>
  <g id="Web_1920_1" data-name="Web 1920 – 1" clip-path="url(#clip-Web_1920_1)">
    <rect width="1920" height="1080" fill="#000d1c"/>
    <path id="blob_1_" data-name="blob (1)" d="M265.957,99.095c11.548,45.514-4.076,99.179,10.19,132.465,14.265,33.626,58.081,46.872,80.158,73.026,22.077,25.814,22.417,64.534,15.964,111.746-6.453,46.872-19.36,102.236-52.986,105.972-33.286,3.736-87.631-43.815-134.5-56.722s-85.932,8.491-95.443-9.171c-9.171-18,11.209-75.063-3.736-109.029C71,313.416,20.727,302.547,5.443,282.847c-14.945-19.7,4.755-47.891,12.907-93.4C26.5,144.269,23.445,81.773,47.9,43.731,72.694,6.03,125-7.556,170.515,3.992,216.028,15.88,254.749,53.242,265.957,99.095Z" transform="translate(15.661 -392.467) rotate(41)" fill="#00100b"/>
    <g id="Gruppe_1" data-name="Gruppe 1">
      <path id="blob" d="M323.807-35.231c11.239,16.056-22.88,100.752-9.232,149.321,13.246,48.971,73.858,61.816,71.048,73.055-3.211,11.239-69.442,20.873-94.329,49.372-25.288,28.5-8.831,75.865-16.859,99.547-8.429,23.683-41.344,24.084-79.076,32.112s-79.879,24.485-136.476,28.5c-57,4.415-127.645-3.613-125.237-40.14,2.81-36.929,79.477-102.357,86.3-163.772C27.171,131.351-35.046,74.352-45.482,24.578-55.517-25.2-13.771-67.744,35.6-62.124,84.973-56.1,142.775-2.316,199.372-1.112,256.371-.309,312.567-51.688,323.807-35.231Z" transform="translate(-290.578 799.135)" fill="#ff9696"/>
      <path id="blob_1_2" data-name="blob (1)" d="M265.957,99.095c11.548,45.514-4.076,99.179,10.19,132.465,14.265,33.626,58.081,46.872,80.158,73.026,22.077,25.814,22.417,64.534,15.964,111.746-6.453,46.872-19.36,102.236-52.986,105.972-33.286,3.736-87.631-43.815-134.5-56.722s-85.932,8.491-95.443-9.171c-9.171-18,11.209-75.063-3.736-109.029C71,313.416,20.727,302.547,5.443,282.847c-14.945-19.7,4.755-47.891,12.907-93.4C26.5,144.269,23.445,81.773,47.9,43.731,72.694,6.03,125-7.556,170.515,3.992,216.028,15.88,254.749,53.242,265.957,99.095Z" transform="translate(342.661 375.155) rotate(41)" fill="#ff9696"/>
      <path id="blob_3_" data-name="blob (3)" d="M393.722,557.083c14.935-47.606-14-132.551,3.734-183.891S479.6,304.582,490.8,281.246c10.735-23.8-32.2-53.674-63.942-80.277-32.2-26.6-53.207-49.94-79.344-49.94-25.67.467-56.474,23.8-106.881-10.268S120.219,14.743,71.679,1.675C23.606-11.393-3,54.415.269,115.09,4,175.765,37.141,231.772,58.144,275.178c20.536,43.873,28.47,76.077,44.339,103.147,15.869,27.537,39.672,49.94,67.209,90.079S228.5,565.95,274.239,589.754C319.512,613.557,378.787,604.222,393.722,557.083Z" transform="matrix(0.105, -0.995, 0.995, 0.105, 1032.413, 1169.286)" fill="#ff9696"/>
      <path id="blob_4_" data-name="blob (4)" d="M345.942,17.826C368.36,37.567,372.71,81.4,374.048,116.2s-.335,60.562-8.03,81.976c-7.361,21.414-20.745,38.479-31.787,56.881-10.707,18.4-18.737,38.479-33.46,58.889-14.722,20.745-36.136,41.825-73.946,70.265s-92.014,64.243-99.71,39.482c-7.7-24.426,31.452-109.748,19.072-156.591-12.715-46.844-76.623-55.878-112.424-84.988C-1.7,152.668-8.731,102.813,10.341,67.681,29.748,32.213,75.588,11.8,118.751,4.107S202.4,1.765,242.886,2.434C283.372,2.769,323.524-1.915,345.942,17.826Z" transform="matrix(0.966, 0.259, -0.259, 0.966, 859.157, -364.558)" fill="#ff9696"/>
      <path id="blob_1_3" data-name="blob (1)" d="M265.957,99.095c11.548,45.514-4.076,99.179,10.19,132.465,14.265,33.626,58.081,46.872,80.158,73.026,22.077,25.814,22.417,64.534,15.964,111.746-6.453,46.872-19.36,102.236-52.986,105.972-33.286,3.736-87.631-43.815-134.5-56.722s-85.932,8.491-95.443-9.171c-9.171-18,11.209-75.063-3.736-109.029C71,313.416,20.727,302.547,5.443,282.847c-14.945-19.7,4.755-47.891,12.907-93.4C26.5,144.269,23.445,81.773,47.9,43.731,72.694,6.03,125-7.556,170.515,3.992,216.028,15.88,254.749,53.242,265.957,99.095Z" transform="translate(1716.661 -184.845) rotate(41)" fill="#ff9696"/>
      <path id="blob_3_2" data-name="blob (3)" d="M393.722,557.083c14.935-47.606-14-132.551,3.734-183.891S479.6,304.582,490.8,281.246c10.735-23.8-32.2-53.674-63.942-80.277-32.2-26.6-53.207-49.94-79.344-49.94-25.67.467-56.474,23.8-106.881-10.268S120.219,14.743,71.679,1.675C23.606-11.393-3,54.415.269,115.09,4,175.765,37.141,231.772,58.144,275.178c20.536,43.873,28.47,76.077,44.339,103.147,15.869,27.537,39.672,49.94,67.209,90.079S228.5,565.95,274.239,589.754C319.512,613.557,378.787,604.222,393.722,557.083Z" transform="matrix(0.105, -0.995, 0.995, 0.105, 1713.413, 595.774)" fill="#ff9696"/>
      <path id="blob_3_3" data-name="blob (3)" d="M393.722,557.083c14.935-47.606-14-132.551,3.734-183.891S479.6,304.582,490.8,281.246c10.735-23.8-32.2-53.674-63.942-80.277-32.2-26.6-53.207-49.94-79.344-49.94-25.67.467-56.474,23.8-106.881-10.268S120.219,14.743,71.679,1.675C23.606-11.393-3,54.415.269,115.09,4,175.765,37.141,231.772,58.144,275.178c20.536,43.873,28.47,76.077,44.339,103.147,15.869,27.537,39.672,49.94,67.209,90.079S228.5,565.95,274.239,589.754C319.512,613.557,378.787,604.222,393.722,557.083Z" transform="matrix(0.105, -0.995, 0.995, 0.105, -103.587, 396.153)" fill="#ff9696"/>
      <path id="blob_4_2" data-name="blob (4)" d="M345.942,17.826C368.36,37.567,372.709,81.4,374.048,116.2s-.335,60.562-8.03,81.976c-7.361,21.414-20.745,38.479-31.787,56.881-10.707,18.4-18.737,38.479-33.46,58.889-14.722,20.745-36.136,41.825-73.946,70.265s-92.014,64.243-99.71,39.482c-7.7-24.426,31.452-109.748,19.072-156.591-12.715-46.843-76.623-55.878-112.424-84.987C-1.7,152.668-8.731,102.813,10.341,67.681,29.748,32.213,75.588,11.8,118.751,4.107S202.4,1.765,242.886,2.434C283.372,2.769,323.524-1.915,345.942,17.826Z" transform="matrix(-0.966, -0.259, 0.259, -0.966, 2076.666, 1172.933)" fill="#ff9696"/>
    </g>
  </g>
</svg>
