<svg viewBox="0 0 1913 1913" xmlns="http://www.w3.org/2000/svg" fill="currentColor" xml:space="preserve" style="fill-rule:evenodd;clip-rule:evenodd;stroke-linejoin:round;stroke-miterlimit:2"><path d="M951.596.023C710.46 1.06 471.082 31.626 346.483 89.007c0 0-267.954 122.024-267.954 537.497 0 494.56-.32 1115.615 444.036 1235.724 170.176 45.729 316.485 55.625 434.14 48.841 213.517-12.05 319.118-77.492 319.118-77.492l-7.184-157.777s-138.407 48.762-309.78 43.175c-169.776-5.985-348.572-18.675-376.429-230.64-2.554-19.713-3.831-39.664-3.751-59.536 359.747 89.303 666.493 38.866 750.942 28.65 235.788-28.65 441.004-176.452 467.185-311.564 41.027-212.924 37.595-519.381 37.595-519.381 0-415.473-267.556-537.497-267.556-537.497C1435.542 27.716 1192.651-.935 951.595.023ZM693.539 316.935c82.613 2.234 164.269 39.185 214.555 117.235l48.61 82.6 48.45-82.6c100.973-156.979 327.34-147.243 435.018-25.777 99.295 115.56 77.105 190.179 77.105 706.447v.16H1321.96V665.769c0-210.29-268.114-218.43-268.114 29.13v260.328H859.723V694.898c0-247.56-267.954-239.579-267.954-29.289v449.231H395.972c0-516.667-21.791-591.765 77.105-706.447 54.278-61.132 137.849-93.693 220.462-91.458Z"/></svg>