<svg viewBox="0 0 32 32" xmlns="http://www.w3.org/2000/svg" fill="currentColor" style="fill-rule:evenodd;clip-rule:evenodd;stroke-linejoin:round;stroke-miterlimit:2"><path d="M15.918 0c-3.99.016-7.949.538-10.01 1.488-.078.035-4.636 2.119-4.636 9.164 0 4.868.011 10.483 1.584 14.622 1.096 2.882 2.935 5.064 5.981 5.886v.001c2.82.757 5.245.919 7.195.807 3.619-.204 5.407-1.33 5.407-1.33l.248-.154-.16-3.522-.634.224s-2.162.758-4.838.671c-2.507-.088-5.21-.173-5.622-3.303a11.754 11.754 0 0 1-.03-.263c5.635 1.256 10.365.485 11.703.324 2.398-.291 4.607-1.314 6.088-2.576 1.044-.89 1.727-1.907 1.915-2.875.662-3.44.62-8.37.618-8.514-.001-6.99-4.482-9.096-4.624-9.16C23.927.473 19.91-.017 15.918 0Zm.004 1c3.822-.015 7.675.423 9.758 1.396l.002.001c.002 0 4.044 1.894 4.044 8.255v.003c.001.003.058 4.91-.599 8.318-.153.784-.737 1.585-1.582 2.305-1.352 1.152-3.37 2.078-5.56 2.344-1.347.162-6.244.972-11.987-.454l-.619-.153-.002.636c-.002.344.02.69.064 1.031v.001c.492 3.74 3.585 4.068 6.58 4.174a16.17 16.17 0 0 0 4.566-.538l.074 1.6c-.574.278-2.132.906-4.686 1.051-1.864.107-4.182-.05-6.878-.775-2.715-.734-4.33-2.707-5.306-5.276C2.257 20.88 2.273 15.4 2.273 10.652c0-6.36 4.05-8.255 4.05-8.255 1.976-.911 5.775-1.38 9.599-1.396V1Zm9.657 18.006s.098-7.045-.014-8.634c-.122-1.724-.472-2.56-1.348-3.58l-.003-.003c-1.944-2.193-6.025-2.355-7.846.476l-.366.622-.36-.614c-.918-1.423-2.394-2.096-3.89-2.138-1.484-.039-2.985.552-3.96 1.652l-.002.002c-.876 1.016-1.227 1.85-1.348 3.575-.113 1.59-.026 3.998-.026 8.202v.5h4.173v-7.78c0-1.338.798-2.08 1.651-2.045.886.035 1.692.884 1.692 2.52v4.719h4.145v-4.72c0-1.635.806-2.484 1.693-2.517.854-.034 1.653.707 1.653 2.046v7.78l4.156-.063Zm-.99-.938h-2.166v-6.78c0-2.069-1.374-3.097-2.693-3.045-1.287.05-2.653 1.142-2.653 3.518v3.718h-2.145v-3.718c0-2.376-1.366-3.468-2.651-3.52-1.32-.052-2.692.976-2.692 3.045v6.78H7.416c-.007-3.86-.084-6.119.023-7.63.102-1.44.376-2.144 1.103-2.988.784-.881 1.992-1.344 3.184-1.313 1.174.032 2.338.55 3.059 1.655l1.218 2.07 1.211-2.062c1.454-2.248 4.7-2.092 6.246-.35.731.85 1.007 1.555 1.108 2.995.106 1.51.027 3.766.02 7.625h.001Z"/></svg>