<svg viewBox="0 0 2009 2013" xmlns="http://www.w3.org/2000/svg" fill="currentColor" style="fill-rule:evenodd;clip-rule:evenodd;stroke-linejoin:round;stroke-miterlimit:2"><path d="M1953.976 529.554c-22.692-85.113-89.834-152.254-175.267-175.267-154.458-41.296-774.209-41.296-774.209-41.296s-619.43 0-774.209 41.296C145.18 376.983 78.037 444.13 55.024 529.554 13.728 684.021 13.728 1006.5 13.728 1006.5s0 322.48 41.296 476.942c22.696 85.113 89.838 152.259 175.267 175.271 154.78 41.296 774.209 41.296 774.209 41.296s619.75 0 774.209-41.296c85.113-22.691 152.263-89.841 175.267-175.27 41.296-154.463 41.296-476.943 41.296-476.943s0-322.48-41.296-476.946Z"/><path d="m190.274 237.9 123.546-71.342-123.546-71.343V237.9Z" style="fill:#fff;fill-rule:nonzero" transform="translate(13.728 312.508) scale(4.16667)"/></svg>